<svg version="1.1" xmlns="http://www.w3.org/2000/svg" xmlns:xlink="http://www.w3.org/1999/xlink" width="1288" height="724"><defs/><g><g transform="translate(-30,-198) scale(1,1)"><path fill="#ffffff" stroke="none" d="M 60.02116672585227 657.6800000000001 C 60.02116672585227 652.8861679360001 63.907009050797726 649 68.700439453125 649 C 73.49386985545227 649 77.37971218039773 652.8861679360001 77.37971218039773 657.6800000000001 C 77.37971218039773 662.473832064 73.49386985545227 666.36 68.700439453125 666.36 C 63.907009050797726 666.36 60.02116672585227 662.473832064 60.02116672585227 657.6800000000001 Z"/></g><g transform="translate(-30,-198) scale(1,1)"><path fill="none" stroke="#000000" d="M 60.02116672585227 657.6800000000001 C 60.02116672585227 652.8861679360001 63.907009050797726 649 68.700439453125 649 C 73.49386985545227 649 77.37971218039773 652.8861679360001 77.37971218039773 657.6800000000001 C 77.37971218039773 662.473832064 73.49386985545227 666.36 68.700439453125 666.36 C 63.907009050797726 666.36 60.02116672585227 662.473832064 60.02116672585227 657.6800000000001 Z" stroke-miterlimit="10"/></g><g transform="translate(-30,-198) scale(1,1)"><path fill="none" stroke="#000000" d="M 68.700439453125 666.36 L 68.700439453125 683.64" stroke-miterlimit="10"/></g><g transform="translate(-30,-198) scale(1,1)"><path fill="none" stroke="#000000" d="M 59.51062127130682 672.84 L 77.89025763494318 672.84" stroke-miterlimit="10"/></g><g transform="translate(-30,-198) scale(1,1)"><path fill="none" stroke="#000000" d="M 68.700439453125 683.64 L 55.936803089488635 701" stroke-miterlimit="10"/></g><g transform="translate(-30,-198) scale(1,1)"><path fill="none" stroke="#000000" d="M 68.700439453125 683.64 L 81.46407581676137 701" stroke-miterlimit="10"/></g><g transform="translate(-30,-198) scale(1,1)"><g><path fill="none" stroke="none"/><text fill="#000000" stroke="none" font-family="Arial" font-size="13px" font-style="normal" font-weight="bold" text-decoration="none" x="46.302734375" y="721.5">Usuario</text></g></g><g transform="translate(-30,-198) scale(1,1)"><path fill="#C0C0C0" stroke="none" d="M 215 690.5 C 215 662.0573328 311.258768 639 430 639 C 548.741232 639 645 662.0573328 645 690.5 C 645 718.9426672 548.741232 742 430 742 C 311.258768 742 215 718.9426672 215 690.5 Z" opacity="0.2"/></g><g transform="translate(-30,-198) scale(1,1)"><path fill="#ffffff" stroke="none" d="M 208 683.5 C 208 655.0573328 304.258768 632 423 632 C 541.741232 632 638 655.0573328 638 683.5 C 638 711.9426672 541.741232 735 423 735 C 304.258768 735 208 711.9426672 208 683.5 Z"/></g><g transform="translate(-30,-198) scale(1,1)"><path fill="none" stroke="#000000" d="M 208 683.5 C 208 655.0573328 304.258768 632 423 632 C 541.741232 632 638 655.0573328 638 683.5 C 638 711.9426672 541.741232 735 423 735 C 304.258768 735 208 711.9426672 208 683.5 Z" stroke-miterlimit="10"/></g><g transform="translate(-30,-198) scale(1,1)"><g><path fill="none" stroke="none"/><text fill="#000000" stroke="none" font-family="Arial" font-size="13px" font-style="normal" font-weight="bold" text-decoration="none" x="291.48291015625" y="690.5">CU1- Seleccionar un algoritmo de ordenación</text></g></g><g transform="translate(-30,-198) scale(1,1)"><path fill="none" stroke="#000000" d="M 98 687 L 207 685" stroke-miterlimit="10"/></g><g transform="translate(-30,-198) scale(1,1)"><path fill="#C0C0C0" stroke="none" d="M 223 466.5 C 223 438.0573328 313.8861856 415 426 415 C 538.1138144 415 629 438.0573328 629 466.5 C 629 494.9426672 538.1138144 518 426 518 C 313.8861856 518 223 494.9426672 223 466.5 Z" opacity="0.2"/></g><g transform="translate(-30,-198) scale(1,1)"><path fill="#ffffff" stroke="none" d="M 216 459.5 C 216 431.0573328 306.8861856 408 419 408 C 531.1138144 408 622 431.0573328 622 459.5 C 622 487.9426672 531.1138144 511 419 511 C 306.8861856 511 216 487.9426672 216 459.5 Z"/></g><g transform="translate(-30,-198) scale(1,1)"><path fill="none" stroke="#000000" d="M 216 459.5 C 216 431.0573328 306.8861856 408 419 408 C 531.1138144 408 622 431.0573328 622 459.5 C 622 487.9426672 531.1138144 511 419 511 C 306.8861856 511 216 487.9426672 216 459.5 Z" stroke-miterlimit="10"/></g><g transform="translate(-30,-198) scale(1,1)"><g><path fill="none" stroke="none"/><text fill="#000000" stroke="none" font-family="Arial" font-size="13px" font-style="normal" font-weight="bold" text-decoration="none" x="288.68896484375" y="466.5">CU2- Avanzar al siguiente paso del algoritmo</text></g></g><g transform="translate(-30,-198) scale(1,1)"><path fill="#C0C0C0" stroke="none" d="M 215 263 C 215 236.4903296 309.020192 215 425 215 C 540.979808 215 635 236.4903296 635 263 C 635 289.5096704 540.979808 311 425 311 C 309.020192 311 215 289.5096704 215 263 Z" opacity="0.2"/></g><g transform="translate(-30,-198) scale(1,1)"><path fill="#ffffff" stroke="none" d="M 208 256 C 208 229.4903296 302.020192 208 418 208 C 533.979808 208 628 229.4903296 628 256 C 628 282.5096704 533.979808 304 418 304 C 302.020192 304 208 282.5096704 208 256 Z"/></g><g transform="translate(-30,-198) scale(1,1)"><path fill="none" stroke="#000000" d="M 208 256 C 208 229.4903296 302.020192 208 418 208 C 533.979808 208 628 229.4903296 628 256 C 628 282.5096704 533.979808 304 418 304 C 302.020192 304 208 282.5096704 208 256 Z" stroke-miterlimit="10"/></g><g transform="translate(-30,-198) scale(1,1)"><g><path fill="none" stroke="none"/><text fill="#000000" stroke="none" font-family="Arial" font-size="13px" font-style="normal" font-weight="bold" text-decoration="none" x="283.242431640625" y="263">CU3- Retroceder al paso anterior del algoritmo</text></g></g><g transform="translate(-30,-198) scale(1,1)"><path fill="none" stroke="#000000" d="M 420 512 L 422 631" stroke-miterlimit="10" stroke-dasharray="3"/></g><g transform="translate(-30,-198) scale(1,1)"><path fill="none" stroke="#000000" d="M 417.62029950028045 620.9094983507877 L 422 631 L 426.0381462188143 620.7680219353501" stroke-miterlimit="10"/></g><g transform="translate(-30,-198) scale(1,1)"><g><path fill="none" stroke="none"/><text fill="#000000" stroke="none" font-family="Arial" font-size="13px" font-style="normal" font-weight="normal" text-decoration="none" x="423.5" y="576.5">«extend»</text></g></g><g transform="translate(-30,-198) scale(1,1)"><path fill="none" stroke="#000000" d="M 418 305 L 419 407" stroke-miterlimit="10" stroke-dasharray="3"/></g><g transform="translate(-30,-198) scale(1,1)"><path fill="none" stroke="#000000" d="M 414.6910552529352 396.87908130816464 L 419 407 L 423.1096861884268 396.79654571075787" stroke-miterlimit="10"/></g><g transform="translate(-30,-198) scale(1,1)"><g><path fill="none" stroke="none"/><text fill="#000000" stroke="none" font-family="Arial" font-size="13px" font-style="normal" font-weight="normal" text-decoration="none" x="420.5" y="361.5">«extend»</text></g></g><g transform="translate(-30,-198) scale(1,1)"><path fill="#C0C0C0" stroke="none" d="M 711 467 C 711 438.2811904 828.5252399999999 415 973.5 415 C 1118.47476 415 1236 438.2811904 1236 467 C 1236 495.7188096 1118.47476 519 973.5 519 C 828.5252399999999 519 711 495.7188096 711 467 Z" opacity="0.2"/></g><g transform="translate(-30,-198) scale(1,1)"><path fill="#ffffff" stroke="none" d="M 704 460 C 704 431.2811904 821.5252399999999 408 966.5 408 C 1111.47476 408 1229 431.2811904 1229 460 C 1229 488.7188096 1111.47476 512 966.5 512 C 821.5252399999999 512 704 488.7188096 704 460 Z"/></g><g transform="translate(-30,-198) scale(1,1)"><path fill="none" stroke="#000000" d="M 704 460 C 704 431.2811904 821.5252399999999 408 966.5 408 C 1111.47476 408 1229 431.2811904 1229 460 C 1229 488.7188096 1111.47476 512 966.5 512 C 821.5252399999999 512 704 488.7188096 704 460 Z" stroke-miterlimit="10"/></g><g transform="translate(-30,-198) scale(1,1)"><g><path fill="none" stroke="none"/><text fill="#000000" stroke="none" font-family="Arial" font-size="13px" font-style="normal" font-weight="bold" text-decoration="none" x="797.782470703125" y="467">CU4- Reproducir automáticamente los pasos del algoritmo</text></g></g><g transform="translate(-30,-198) scale(1,1)"><path fill="none" stroke="#000000" d="M 837 513 L 550 631" stroke-miterlimit="10" stroke-dasharray="3"/></g><g transform="translate(-30,-198) scale(1,1)"><path fill="none" stroke="#000000" d="M 557.7985103411572 623.2422144616609 L 550 631 L 560.9999623065362 631.0287967842352" stroke-miterlimit="10"/></g><g transform="translate(-30,-198) scale(1,1)"><g><path fill="none" stroke="none"/><text fill="#000000" stroke="none" font-family="Arial" font-size="13px" font-style="normal" font-weight="normal" text-decoration="none" x="677.5" y="605.5">«extend»</text></g></g><g transform="translate(-30,-198) scale(1,1)"><path fill="#C0C0C0" stroke="none" d="M 711 267 C 711 238.2811904 846.2099903999999 215 1013 215 C 1179.7900096 215 1315 238.2811904 1315 267 C 1315 295.7188096 1179.7900096 319 1013 319 C 846.2099903999999 319 711 295.7188096 711 267 Z" opacity="0.2"/></g><g transform="translate(-30,-198) scale(1,1)"><path fill="#ffffff" stroke="none" d="M 704 260 C 704 231.2811904 839.2099903999999 208 1006 208 C 1172.7900096 208 1308 231.2811904 1308 260 C 1308 288.7188096 1172.7900096 312 1006 312 C 839.2099903999999 312 704 288.7188096 704 260 Z"/></g><g transform="translate(-30,-198) scale(1,1)"><path fill="none" stroke="#000000" d="M 704 260 C 704 231.2811904 839.2099903999999 208 1006 208 C 1172.7900096 208 1308 231.2811904 1308 260 C 1308 288.7188096 1172.7900096 312 1006 312 C 839.2099903999999 312 704 288.7188096 704 260 Z" stroke-miterlimit="10"/></g><g transform="translate(-30,-198) scale(1,1)"><g><path fill="none" stroke="none"/><text fill="#000000" stroke="none" font-family="Arial" font-size="13px" font-style="normal" font-weight="bold" text-decoration="none" x="811.26025390625" y="267">CU5- Pausar la reproducción automática de los pasos del algoritmo</text></g></g><g transform="translate(-30,-198) scale(1,1)"><path fill="none" stroke="#000000" d="M 995 313 L 977 407" stroke-miterlimit="10" stroke-dasharray="3"/></g><g transform="translate(-30,-198) scale(1,1)"><path fill="none" stroke="#000000" d="M 974.7769176183187 396.22698256177694 L 977 407 L 983.0457170571854 397.8103696883684" stroke-miterlimit="10"/></g><g transform="translate(-30,-198) scale(1,1)"><g><path fill="none" stroke="none"/><text fill="#000000" stroke="none" font-family="Arial" font-size="13px" font-style="normal" font-weight="normal" text-decoration="none" x="988.5" y="371.5">«extend»</text></g></g><g transform="translate(-30,-198) scale(1,1)"><path fill="#C0C0C0" stroke="none" d="M 215 867 C 215 838.2811904 311.7064832 815 431 815 C 550.2935168 815 647 838.2811904 647 867 C 647 895.7188096 550.2935168 919 431 919 C 311.7064832 919 215 895.7188096 215 867 Z" opacity="0.2"/></g><g transform="translate(-30,-198) scale(1,1)"><path fill="#ffffff" stroke="none" d="M 208 860 C 208 831.2811904 304.7064832 808 424 808 C 543.2935168 808 640 831.2811904 640 860 C 640 888.7188096 543.2935168 912 424 912 C 304.7064832 912 208 888.7188096 208 860 Z"/></g><g transform="translate(-30,-198) scale(1,1)"><path fill="none" stroke="#000000" d="M 208 860 C 208 831.2811904 304.7064832 808 424 808 C 543.2935168 808 640 831.2811904 640 860 C 640 888.7188096 543.2935168 912 424 912 C 304.7064832 912 208 888.7188096 208 860 Z" stroke-miterlimit="10"/></g><g transform="translate(-30,-198) scale(1,1)"><g><path fill="none" stroke="none"/><text fill="#000000" stroke="none" font-family="Arial" font-size="13px" font-style="normal" font-weight="bold" text-decoration="none" x="298.630615234375" y="867">CU6- Cambiar el lenguaje de programación</text></g></g><g transform="translate(-30,-198) scale(1,1)"><path fill="none" stroke="#000000" d="M 424 807 L 423 736" stroke-miterlimit="10" stroke-dasharray="3"/></g><g transform="translate(-30,-198) scale(1,1)"><path fill="none" stroke="#000000" d="M 427.35222236058274 746.1023839030223 L 423 736 L 418.9340217804229 746.2209501083767" stroke-miterlimit="10"/></g><g transform="translate(-30,-198) scale(1,1)"><g><path fill="none" stroke="none"/><text fill="#000000" stroke="none" font-family="Arial" font-size="13px" font-style="normal" font-weight="normal" text-decoration="none" x="366.5" y="776.5">«extend»</text></g></g><g transform="translate(-30,-198) scale(1,1)"><path fill="#C0C0C0" stroke="none" d="M 759 691 C 759 662.2811904 850.3339008 639 963 639 C 1075.6660992 639 1167 662.2811904 1167 691 C 1167 719.7188096 1075.6660992 743 963 743 C 850.3339008 743 759 719.7188096 759 691 Z" opacity="0.2"/></g><g transform="translate(-30,-198) scale(1,1)"><path fill="#ffffff" stroke="none" d="M 752 684 C 752 655.2811904 843.3339008 632 956 632 C 1068.6660992 632 1160 655.2811904 1160 684 C 1160 712.7188096 1068.6660992 736 956 736 C 843.3339008 736 752 712.7188096 752 684 Z"/></g><g transform="translate(-30,-198) scale(1,1)"><path fill="none" stroke="#000000" d="M 752 684 C 752 655.2811904 843.3339008 632 956 632 C 1068.6660992 632 1160 655.2811904 1160 684 C 1160 712.7188096 1068.6660992 736 956 736 C 843.3339008 736 752 712.7188096 752 684 Z" stroke-miterlimit="10"/></g><g transform="translate(-30,-198) scale(1,1)"><g><path fill="none" stroke="none"/><text fill="#000000" stroke="none" font-family="Arial" font-size="13px" font-style="normal" font-weight="bold" text-decoration="none" x="830.630615234375" y="691">CU6- Cambiar el lenguaje de programación</text></g></g><g transform="translate(-30,-198) scale(1,1)"><path fill="none" stroke="#000000" d="M 751 684 L 639 683" stroke-miterlimit="10" stroke-dasharray="3"/></g><g transform="translate(-30,-198) scale(1,1)"><path fill="none" stroke="#000000" d="M 649.1998532826616 678.881384575834 L 639 683 L 649.1246863188052 687.3000845277505" stroke-miterlimit="10"/></g><g transform="translate(-30,-198) scale(1,1)"><g><path fill="none" stroke="none"/><text fill="#000000" stroke="none" font-family="Arial" font-size="13px" font-style="normal" font-weight="normal" text-decoration="none" x="671.5" y="707.5">«extend»</text></g></g><g transform="translate(-30,-198) scale(1,1)"><path fill="#C0C0C0" stroke="none" d="M 759 867 C 759 838.2811904 850.3339008 815 963 815 C 1075.6660992 815 1167 838.2811904 1167 867 C 1167 895.7188096 1075.6660992 919 963 919 C 850.3339008 919 759 895.7188096 759 867 Z" opacity="0.2"/></g><g transform="translate(-30,-198) scale(1,1)"><path fill="#ffffff" stroke="none" d="M 752 860 C 752 831.2811904 843.3339008 808 956 808 C 1068.6660992 808 1160 831.2811904 1160 860 C 1160 888.7188096 1068.6660992 912 956 912 C 843.3339008 912 752 888.7188096 752 860 Z"/></g><g transform="translate(-30,-198) scale(1,1)"><path fill="none" stroke="#000000" d="M 752 860 C 752 831.2811904 843.3339008 808 956 808 C 1068.6660992 808 1160 831.2811904 1160 860 C 1160 888.7188096 1068.6660992 912 956 912 C 843.3339008 912 752 888.7188096 752 860 Z" stroke-miterlimit="10"/></g><g transform="translate(-30,-198) scale(1,1)"><g><path fill="none" stroke="none"/><text fill="#000000" stroke="none" font-family="Arial" font-size="13px" font-style="normal" font-weight="bold" text-decoration="none" x="841.8310546875" y="867">CU7- Ver la explicación de un algoritmo</text></g></g><g transform="translate(-30,-198) scale(1,1)"><path fill="none" stroke="#000000" d="M 796 807 L 583 736" stroke-miterlimit="10" stroke-dasharray="3"/></g><g transform="translate(-30,-198) scale(1,1)"><path fill="none" stroke="#000000" d="M 593.9723262969391 735.2202207790025 L 583 736 L 591.3099935049528 743.2072191549614" stroke-miterlimit="10"/></g><g transform="translate(-30,-198) scale(1,1)"><g><path fill="none" stroke="none"/><text fill="#000000" stroke="none" font-family="Arial" font-size="13px" font-style="normal" font-weight="normal" text-decoration="none" x="687.5" y="764.5">«extend»</text></g></g></g></svg>